<?xml version="1.0" encoding="utf-8"?>
<!-- Generator: Adobe Illustrator 21.1.0, SVG Export Plug-In . SVG Version: 6.00 Build 0)  -->
<svg version="1.1" id="Layer_1" xmlns="http://www.w3.org/2000/svg" xmlns:xlink="http://www.w3.org/1999/xlink" x="0px" y="0px"
	 viewBox="0 0 307.3 633.5" style="enable-background:new 0 0 307.3 633.5;" xml:space="preserve">
<style type="text/css">
	.st0{fill:#C6C7C9;}
	.st1{filter:url(#Adobe_OpacityMaskFilter);}
	.st2{mask:url(#SVGID_1_);}
	.st3{fill:#CCCCCC;}
	.st4{fill:#FBFCFE;}
	.st5{opacity:0.4;fill:#E2E3E4;}
	.st6{fill:#AFAFAF;}
	.st7{fill:#939393;}
</style>
<g>
	<g>
		<g>
			<g>
				<path class="st0" d="M260.8,0H46.5C20.9,0,0,20.9,0,46.5V587c0,25.6,20.9,46.5,46.5,46.5h214.3c25.6,0,46.5-20.9,46.5-46.5V46.5
					C307.3,20.9,286.5,0,260.8,0z M302.3,587c0,22.9-18.6,41.5-41.5,41.5H46.5C23.6,628.5,5,609.9,5,587V46.5C5,23.6,23.6,5,46.5,5
					h214.3c22.9,0,41.5,18.6,41.5,41.5V587z"/>
			</g>
		</g>
		<defs>
			<filter id="Adobe_OpacityMaskFilter" filterUnits="userSpaceOnUse" x="0" y="0" width="307.3" height="633.5">
				
					<feColorMatrix  type="matrix" values="-1 0 0 0 1  0 -1 0 0 1  0 0 -1 0 1  0 0 0 1 0" color-interpolation-filters="sRGB" result="source"/>
			</filter>
		</defs>
		<mask maskUnits="userSpaceOnUse" x="0" y="0" width="307.3" height="633.5" id="SVGID_1_">
			<g class="st1">
				
					<image style="overflow:visible;" width="1299" height="2658" xlink:href="F1C6C2B9AEFA96E0.jpg"  transform="matrix(0.24 0 0 0.24 -2.1238 -2.036)">
				</image>
			</g>
		</mask>
		<g class="st2">
			<g>
				<path class="st3" d="M260.8,0H46.5C20.9,0,0,20.9,0,46.5V587c0,25.6,20.9,46.5,46.5,46.5h214.3c25.6,0,46.5-20.9,46.5-46.5V46.5
					C307.3,20.9,286.5,0,260.8,0z M302.3,587c0,22.9-18.6,41.5-41.5,41.5H46.5C23.6,628.5,5,609.9,5,587V46.5C5,23.6,23.6,5,46.5,5
					h214.3c22.9,0,41.5,18.6,41.5,41.5V587z"/>
			</g>
		</g>
	</g>
	<path class="st4" d="M302.3,587c0,22.9-18.6,41.5-41.5,41.5H46.5C23.6,628.5,5,609.9,5,587V46.5C5,23.6,23.6,5,46.5,5h214.3
		c22.9,0,41.5,18.6,41.5,41.5V587z"/>
	<path class="st5" d="M260.8,5H46.5C23.6,5,5,23.6,5,46.5V587c0,22.9,18.6,41.5,41.5,41.5h214.3c22.9,0,41.5-18.6,41.5-41.5V46.5
		C302.3,23.6,283.7,5,260.8,5z M298.7,587c0,20.9-17,37.9-37.9,37.9H46.5c-20.9,0-37.9-17-37.9-37.9V46.5c0-20.9,17-37.9,37.9-37.9
		h214.3c20.9,0,37.9,17,37.9,37.9V587z"/>
	<g>
	</g>
</g>
<g>
	<path class="st6" d="M153.7,616.2c-13.4,0-24.2-10.9-24.2-24.2s10.9-24.2,24.2-24.2s24.2,10.9,24.2,24.2S167,616.2,153.7,616.2z
		 M153.7,570.8c-11.7,0-21.2,9.5-21.2,21.2s9.5,21.2,21.2,21.2s21.2-9.5,21.2-21.2S165.4,570.8,153.7,570.8z"/>
</g>
<circle class="st7" cx="107.5" cy="42.9" r="5"/>
<g>
	<path class="st0" d="M127.6,42.9c0,1.4,1.6,2.5,3.6,2.5H174c2,0,3.6-1.1,3.6-2.5s-1.6-2.5-3.6-2.5h-42.8
		C129.2,40.4,127.6,41.5,127.6,42.9z"/>
</g>
</svg>
