<?xml version="1.0" encoding="utf-8"?>
<!-- Generator: Adobe Illustrator 21.1.0, SVG Export Plug-In . SVG Version: 6.00 Build 0)  -->
<svg version="1.1" id="Layer_1" xmlns="http://www.w3.org/2000/svg" xmlns:xlink="http://www.w3.org/1999/xlink" x="0px" y="0px"
	 viewBox="0 0 228 70" style="enable-background:new 0 0 228 70;" xml:space="preserve">
<style type="text/css">
	.st0{fill:#FFFFFF;}
	.st1{fill:#14C4FB;}
	.st2{fill:#00B4FF;}
	.st3{fill:#24D14D;}
	.st4{fill:#2BE078;}
</style>
<g>
	<path class="st0" d="M89.3,48.9c-7.4,0-12.4-6.5-12.4-13.8c0-7.3,5-13.8,12.4-13.8c6.2,0,9.4,4,9.4,4l2.8-2.7c0,0-4.2-5.2-12.2-5.2
		c-9.8,0-16.8,7.8-16.8,17.7c0,9.9,7,17.7,16.8,17.7c7.9,0,12.6-5.6,12.6-5.6L99,44.3C99,44.3,95.4,48.9,89.3,48.9z"/>
	<path class="st0" d="M117.3,17.9L104,52.2h4.4l3.5-9.3h14.6l3.5,9.3h4.3l-13.2-34.3H117.3z M113.4,39l5.8-15.2L125,39H113.4z"/>
	<polygon class="st0" points="160.7,45.3 142.5,17.9 138.3,17.9 138.3,52.2 142.4,52.2 142.4,24.8 160.6,52.2 164.8,52.2 
		164.8,17.9 160.7,17.9 	"/>
	<path class="st0" d="M186.5,17.3c-9.8,0-16.8,7.8-16.8,17.7c0,9.9,7,17.7,16.8,17.7c9.8,0,16.8-7.8,16.8-17.7
		C203.3,25.2,196.3,17.3,186.5,17.3z M186.5,48.9c-7.4,0-12.4-6.5-12.4-13.8c0-7.3,5-13.8,12.4-13.8c7.4,0,12.4,6.5,12.4,13.8
		C198.9,42.4,193.9,48.9,186.5,48.9z"/>
	<polygon class="st0" points="212.2,48.3 212.2,36.6 226.5,36.6 226.5,32.6 212.2,32.6 212.2,21.8 227.7,21.8 227.7,17.9 
		208.1,17.9 208.1,52.2 228,52.2 228,48.3 	"/>
</g>
<polygon class="st1" points="54.2,40.6 40.1,40.6 31.2,40.6 31.2,70 62.2,52.9 62.2,40.6 "/>
<polygon class="st2" points="31.2,40.6 22.1,40.6 1,40.6 0,40.6 0,52.9 31.2,70 "/>
<polygon class="st3" points="31.2,0 0.2,17.4 0,34.5 22.1,34.5 22.1,26.3 31.2,20.3 "/>
<polygon class="st4" points="31.2,0 62.4,17.4 62.2,34.5 40.1,34.5 40.1,26.3 31.2,20.3 "/>
</svg>
